<mxfile host="app.diagrams.net" modified="2021-10-13T08:32:07.524Z" agent="5.0 (Windows NT 10.0; Win64; x64) AppleWebKit/537.36 (KHTML, like Gecko) Chrome/94.0.4606.81 Safari/537.36" etag="FfYRlUTVdlRYfDthQMEa" version="15.5.1" type="github">
  <diagram id="Hw2IK7ok40k7nLGpnW4U" name="第 1 页">
    <mxGraphModel dx="1840" dy="697" grid="1" gridSize="10" guides="1" tooltips="1" connect="1" arrows="1" fold="1" page="1" pageScale="1" pageWidth="827" pageHeight="1169" math="0" shadow="0">
      <root>
        <mxCell id="0" />
        <mxCell id="1" parent="0" />
        <mxCell id="-IGQx0JixpStEkoeapdc-1" value="1" style="shape=message;html=1;whiteSpace=wrap;html=1;outlineConnect=0;fillColor=#dae8fc;strokeColor=#6c8ebf;movable=1;resizable=1;rotatable=1;deletable=1;editable=1;connectable=1;" parent="1" vertex="1">
          <mxGeometry x="260" y="410" width="40" height="20" as="geometry" />
        </mxCell>
        <mxCell id="-IGQx0JixpStEkoeapdc-2" value="topic：1" style="html=1;shadow=0;dashed=0;align=center;verticalAlign=middle;shape=mxgraph.arrows2.arrow;dy=0.67;dx=20;notch=0;movable=1;resizable=1;rotatable=1;deletable=1;editable=1;connectable=1;" parent="1" vertex="1">
          <mxGeometry x="210" y="420" width="150" height="60" as="geometry" />
        </mxCell>
        <mxCell id="-IGQx0JixpStEkoeapdc-3" value="生产者1" style="rounded=1;arcSize=10;whiteSpace=wrap;html=1;align=center;fillColor=#dae8fc;strokeColor=#6c8ebf;" parent="1" vertex="1">
          <mxGeometry x="50" y="390" width="100" height="40" as="geometry" />
        </mxCell>
        <mxCell id="-IGQx0JixpStEkoeapdc-4" value="生产者2" style="rounded=1;arcSize=10;whiteSpace=wrap;html=1;align=center;fillColor=#dae8fc;strokeColor=#6c8ebf;" parent="1" vertex="1">
          <mxGeometry x="50" y="470" width="100" height="40" as="geometry" />
        </mxCell>
        <mxCell id="-IGQx0JixpStEkoeapdc-5" value="生产者3" style="rounded=1;arcSize=10;whiteSpace=wrap;html=1;align=center;fillColor=#ffe6cc;strokeColor=#d79b00;" parent="1" vertex="1">
          <mxGeometry x="50" y="545" width="100" height="40" as="geometry" />
        </mxCell>
        <mxCell id="-IGQx0JixpStEkoeapdc-6" value="疑问" style="swimlane;childLayout=stackLayout;resizeParent=1;resizeParentMax=0;horizontal=1;startSize=20;horizontalStack=0;" parent="1" vertex="1">
          <mxGeometry x="170" y="670" width="530" height="460" as="geometry" />
        </mxCell>
        <mxCell id="-IGQx0JixpStEkoeapdc-7" value="" style="swimlane;startSize=20;horizontal=0;" parent="-IGQx0JixpStEkoeapdc-6" vertex="1">
          <mxGeometry y="20" width="530" height="200" as="geometry">
            <mxRectangle y="20" width="480" height="40" as="alternateBounds" />
          </mxGeometry>
        </mxCell>
        <mxCell id="-IGQx0JixpStEkoeapdc-10" value="1. broker列表必须全部写到生产者或消费者的配置中吗？&lt;br&gt;&lt;div style=&quot;text-align: left&quot;&gt;&lt;span&gt;答：不需要，因为生产者或消费者，会通过配置的地址中&lt;/span&gt;&lt;/div&gt;&lt;div style=&quot;text-align: left&quot;&gt;&lt;span&gt;获得元数据，其中包括所有的broker列表&lt;/span&gt;&lt;/div&gt;" style="text;html=1;align=center;verticalAlign=middle;resizable=0;points=[];autosize=1;strokeColor=none;fillColor=none;" parent="-IGQx0JixpStEkoeapdc-7" vertex="1">
          <mxGeometry x="30" width="320" height="50" as="geometry" />
        </mxCell>
        <mxCell id="-IGQx0JixpStEkoeapdc-11" value="&lt;div style=&quot;text-align: left&quot;&gt;&lt;span&gt;2. 相同的topic多个生产者，同时生产消息，如何做到有序？&lt;/span&gt;&lt;/div&gt;&lt;div style=&quot;text-align: left&quot;&gt;&lt;span&gt;答：第一种情况，虽然有多个生产者，但是每个生产者都可以单独设置key来单分区写入。&lt;/span&gt;&lt;/div&gt;&lt;div style=&quot;text-align: left&quot;&gt;&lt;span&gt;第二种情况，是多个生产者具有相同的key，需要在业务端进行处理，比如借助全局锁&lt;/span&gt;&lt;/div&gt;" style="text;html=1;align=center;verticalAlign=middle;resizable=0;points=[];autosize=1;strokeColor=none;fillColor=none;" parent="-IGQx0JixpStEkoeapdc-7" vertex="1">
          <mxGeometry x="30" y="50" width="490" height="50" as="geometry" />
        </mxCell>
        <mxCell id="-IGQx0JixpStEkoeapdc-8" value="Lane 2" style="swimlane;startSize=20;horizontal=0;" parent="-IGQx0JixpStEkoeapdc-6" vertex="1">
          <mxGeometry y="220" width="530" height="120" as="geometry" />
        </mxCell>
        <mxCell id="-IGQx0JixpStEkoeapdc-9" value="Lane 3" style="swimlane;startSize=20;horizontal=0;" parent="-IGQx0JixpStEkoeapdc-6" vertex="1">
          <mxGeometry y="340" width="530" height="120" as="geometry" />
        </mxCell>
        <mxCell id="9vsc2cy2VzVOIzII8Pbb-2" value="broker集群" style="swimlane;align=center;" parent="1" vertex="1">
          <mxGeometry x="380" y="295" width="290" height="325" as="geometry" />
        </mxCell>
        <mxCell id="9vsc2cy2VzVOIzII8Pbb-3" value="broker1" style="rounded=1;whiteSpace=wrap;html=1;align=center;" parent="1" vertex="1">
          <mxGeometry x="390" y="350" width="120" height="130" as="geometry" />
        </mxCell>
        <mxCell id="9vsc2cy2VzVOIzII8Pbb-4" value="" style="shape=curlyBracket;whiteSpace=wrap;html=1;rounded=1;align=center;" parent="1" vertex="1">
          <mxGeometry x="107" y="1200.5" width="20" height="150" as="geometry" />
        </mxCell>
        <mxCell id="9vsc2cy2VzVOIzII8Pbb-6" value="cpu" style="whiteSpace=wrap;html=1;rounded=1;" parent="1" vertex="1">
          <mxGeometry x="141" y="1200.5" width="146" height="30" as="geometry" />
        </mxCell>
        <mxCell id="9vsc2cy2VzVOIzII8Pbb-8" value="内存" style="whiteSpace=wrap;html=1;rounded=1;" parent="1" vertex="1">
          <mxGeometry x="141" y="1240.5" width="146" height="30" as="geometry" />
        </mxCell>
        <mxCell id="9vsc2cy2VzVOIzII8Pbb-9" value="磁盘" style="whiteSpace=wrap;html=1;rounded=1;" parent="1" vertex="1">
          <mxGeometry x="141" y="1280.5" width="146" height="30" as="geometry" />
        </mxCell>
        <mxCell id="9vsc2cy2VzVOIzII8Pbb-10" value="&lt;span style=&quot;font-weight: normal&quot;&gt;&lt;font style=&quot;font-size: 16px&quot;&gt;基础信息&lt;/font&gt;&lt;/span&gt;" style="text;strokeColor=none;fillColor=none;html=1;fontSize=24;fontStyle=1;verticalAlign=middle;align=center;" parent="1" vertex="1">
          <mxGeometry x="17" y="1255.5" width="100" height="40" as="geometry" />
        </mxCell>
        <mxCell id="9vsc2cy2VzVOIzII8Pbb-11" value="网络" style="whiteSpace=wrap;html=1;rounded=1;" parent="1" vertex="1">
          <mxGeometry x="141" y="1320.5" width="146" height="30" as="geometry" />
        </mxCell>
        <mxCell id="9vsc2cy2VzVOIzII8Pbb-12" value="&lt;span style=&quot;font-weight: normal&quot;&gt;&lt;font style=&quot;font-size: 16px&quot;&gt;内置采集能力&lt;/font&gt;&lt;/span&gt;" style="text;strokeColor=none;fillColor=none;html=1;fontSize=24;fontStyle=1;verticalAlign=middle;align=center;" parent="1" vertex="1">
          <mxGeometry y="1438" width="120" height="32" as="geometry" />
        </mxCell>
        <mxCell id="9vsc2cy2VzVOIzII8Pbb-13" value="" style="shape=curlyBracket;whiteSpace=wrap;html=1;rounded=1;align=center;" parent="1" vertex="1">
          <mxGeometry x="107" y="1380.5" width="20" height="150" as="geometry" />
        </mxCell>
        <mxCell id="9vsc2cy2VzVOIzII8Pbb-14" value="端口" style="whiteSpace=wrap;html=1;rounded=1;" parent="1" vertex="1">
          <mxGeometry x="141" y="1380.5" width="146" height="30" as="geometry" />
        </mxCell>
        <mxCell id="9vsc2cy2VzVOIzII8Pbb-15" value="进程" style="whiteSpace=wrap;html=1;rounded=1;" parent="1" vertex="1">
          <mxGeometry x="141" y="1420.5" width="146" height="30" as="geometry" />
        </mxCell>
        <mxCell id="9vsc2cy2VzVOIzII8Pbb-16" value="log" style="whiteSpace=wrap;html=1;rounded=1;fillColor=#dae8fc;strokeColor=#6c8ebf;" parent="1" vertex="1">
          <mxGeometry x="141" y="1460.5" width="146" height="30" as="geometry" />
        </mxCell>
        <mxCell id="9vsc2cy2VzVOIzII8Pbb-17" value="自定义插件" style="whiteSpace=wrap;html=1;rounded=1;fillColor=#d5e8d4;strokeColor=#82b366;" parent="1" vertex="1">
          <mxGeometry x="141" y="1500.5" width="146" height="30" as="geometry" />
        </mxCell>
        <mxCell id="9vsc2cy2VzVOIzII8Pbb-18" value="&lt;span style=&quot;font-weight: normal ; font-size: 16px&quot;&gt;软件设备&lt;br&gt;采集能力&lt;/span&gt;" style="text;strokeColor=none;fillColor=none;html=1;fontSize=24;fontStyle=1;verticalAlign=middle;align=center;" parent="1" vertex="1">
          <mxGeometry x="-13" y="1583" width="120" height="65" as="geometry" />
        </mxCell>
        <mxCell id="9vsc2cy2VzVOIzII8Pbb-19" value="" style="shape=curlyBracket;whiteSpace=wrap;html=1;rounded=1;align=center;" parent="1" vertex="1">
          <mxGeometry x="107" y="1560.5" width="20" height="110" as="geometry" />
        </mxCell>
        <mxCell id="9vsc2cy2VzVOIzII8Pbb-20" value="mysql(内置)" style="whiteSpace=wrap;html=1;rounded=1;" parent="1" vertex="1">
          <mxGeometry x="141" y="1560.5" width="146" height="30" as="geometry" />
        </mxCell>
        <mxCell id="9vsc2cy2VzVOIzII8Pbb-21" value="JMX" style="whiteSpace=wrap;html=1;rounded=1;" parent="1" vertex="1">
          <mxGeometry x="141" y="1603" width="146" height="30" as="geometry" />
        </mxCell>
        <mxCell id="9vsc2cy2VzVOIzII8Pbb-22" value="SNMP" style="whiteSpace=wrap;html=1;rounded=1;" parent="1" vertex="1">
          <mxGeometry x="141" y="1640.5" width="146" height="30" as="geometry" />
        </mxCell>
        <mxCell id="9vsc2cy2VzVOIzII8Pbb-23" value="" style="shape=curlyBracket;whiteSpace=wrap;html=1;rounded=1;flipH=1;align=center;" parent="1" vertex="1">
          <mxGeometry x="317" y="1195.5" width="20" height="475" as="geometry" />
        </mxCell>
        <mxCell id="9vsc2cy2VzVOIzII8Pbb-24" value="上报指标" style="shape=singleArrow;whiteSpace=wrap;html=1;align=center;" parent="1" vertex="1">
          <mxGeometry x="347" y="1403" width="110" height="60" as="geometry" />
        </mxCell>
        <mxCell id="9vsc2cy2VzVOIzII8Pbb-25" value="夜莺server集群" style="verticalLabelPosition=top;verticalAlign=bottom;html=1;shape=mxgraph.basic.rect;fillColor2=none;strokeWidth=1;size=20;indent=5;labelPosition=center;align=center;" parent="1" vertex="1">
          <mxGeometry x="457" y="1328" width="150" height="210" as="geometry" />
        </mxCell>
        <mxCell id="9vsc2cy2VzVOIzII8Pbb-26" value="" style="shape=curlyBracket;whiteSpace=wrap;html=1;rounded=1;align=center;rotation=90;" parent="1" vertex="1">
          <mxGeometry x="521.38" y="1486.13" width="20" height="263.75" as="geometry" />
        </mxCell>
        <mxCell id="_ushDdjgcCsxqVEZmOoj-1" value="n9e-server" style="shape=ext;double=1;rounded=1;whiteSpace=wrap;html=1;" vertex="1" parent="1">
          <mxGeometry x="472" y="1340.5" width="120" height="80" as="geometry" />
        </mxCell>
        <mxCell id="_ushDdjgcCsxqVEZmOoj-2" value="n9e-server" style="shape=ext;double=1;rounded=1;whiteSpace=wrap;html=1;" vertex="1" parent="1">
          <mxGeometry x="472" y="1438" width="120" height="80" as="geometry" />
        </mxCell>
        <mxCell id="_ushDdjgcCsxqVEZmOoj-4" value="基础数据" style="html=1;shadow=0;dashed=0;align=center;verticalAlign=middle;shape=mxgraph.arrows2.arrow;dy=0.6;dx=40;notch=0;" vertex="1" parent="1">
          <mxGeometry x="607" y="1478.5" width="90" height="52" as="geometry" />
        </mxCell>
        <mxCell id="_ushDdjgcCsxqVEZmOoj-5" value="mysql" style="strokeWidth=2;html=1;shape=mxgraph.flowchart.database;whiteSpace=wrap;" vertex="1" parent="1">
          <mxGeometry x="707" y="1478.5" width="60" height="60" as="geometry" />
        </mxCell>
        <mxCell id="_ushDdjgcCsxqVEZmOoj-6" value="时序数据" style="html=1;shadow=0;dashed=0;align=center;verticalAlign=middle;shape=mxgraph.arrows2.arrow;dy=0.6;dx=40;notch=0;" vertex="1" parent="1">
          <mxGeometry x="607" y="1358.5" width="90" height="52" as="geometry" />
        </mxCell>
        <mxCell id="_ushDdjgcCsxqVEZmOoj-7" value="" style="shape=curlyBracket;whiteSpace=wrap;html=1;rounded=1;" vertex="1" parent="1">
          <mxGeometry x="697" y="1324.5" width="20" height="120" as="geometry" />
        </mxCell>
        <mxCell id="_ushDdjgcCsxqVEZmOoj-8" value="prometheus" style="strokeWidth=2;html=1;shape=mxgraph.flowchart.database;whiteSpace=wrap;" vertex="1" parent="1">
          <mxGeometry x="737" y="1320.5" width="90" height="55" as="geometry" />
        </mxCell>
        <mxCell id="_ushDdjgcCsxqVEZmOoj-9" value="m3db" style="strokeWidth=2;html=1;shape=mxgraph.flowchart.database;whiteSpace=wrap;" vertex="1" parent="1">
          <mxGeometry x="737" y="1395.5" width="90" height="55" as="geometry" />
        </mxCell>
        <mxCell id="_ushDdjgcCsxqVEZmOoj-10" value="告警&lt;br&gt;方式" style="html=1;shadow=0;dashed=0;align=center;verticalAlign=middle;shape=mxgraph.arrows2.arrow;dy=0.6;dx=40;direction=south;notch=0;" vertex="1" parent="1">
          <mxGeometry x="482" y="1538" width="100" height="72" as="geometry" />
        </mxCell>
        <mxCell id="_ushDdjgcCsxqVEZmOoj-14" value="企业微信" style="rounded=1;whiteSpace=wrap;html=1;fontSize=14;rotation=-90;" vertex="1" parent="1">
          <mxGeometry x="367" y="1660.5" width="70" height="30" as="geometry" />
        </mxCell>
        <mxCell id="_ushDdjgcCsxqVEZmOoj-15" value="邮件" style="rounded=1;whiteSpace=wrap;html=1;fontSize=14;rotation=-90;" vertex="1" parent="1">
          <mxGeometry x="494.5" y="1660.5" width="70" height="30" as="geometry" />
        </mxCell>
        <mxCell id="_ushDdjgcCsxqVEZmOoj-16" value="钉钉" style="rounded=1;whiteSpace=wrap;html=1;fontSize=14;rotation=-90;" vertex="1" parent="1">
          <mxGeometry x="424.5" y="1660.5" width="70" height="30" as="geometry" />
        </mxCell>
        <mxCell id="_ushDdjgcCsxqVEZmOoj-17" value="短信" style="rounded=1;whiteSpace=wrap;html=1;fontSize=14;rotation=-90;" vertex="1" parent="1">
          <mxGeometry x="557" y="1660.5" width="70" height="30" as="geometry" />
        </mxCell>
        <mxCell id="_ushDdjgcCsxqVEZmOoj-18" value="其他方式" style="rounded=1;whiteSpace=wrap;html=1;fontSize=14;rotation=-90;" vertex="1" parent="1">
          <mxGeometry x="617" y="1660.5" width="70" height="30" as="geometry" />
        </mxCell>
        <mxCell id="_ushDdjgcCsxqVEZmOoj-19" value="&lt;font style=&quot;font-size: 12px&quot;&gt;数据&lt;br&gt;展示&lt;/font&gt;" style="html=1;shadow=0;dashed=0;align=center;verticalAlign=middle;shape=mxgraph.arrows2.arrow;dy=0.6;dx=40;direction=north;notch=0;fontSize=16;" vertex="1" parent="1">
          <mxGeometry x="497" y="1240.5" width="70" height="70" as="geometry" />
        </mxCell>
        <mxCell id="_ushDdjgcCsxqVEZmOoj-20" value="" style="shape=curlyBracket;whiteSpace=wrap;html=1;rounded=1;flipH=1;fontSize=12;rotation=90;size=0.5;" vertex="1" parent="1">
          <mxGeometry x="523.25" y="1169" width="17.5" height="141.5" as="geometry" />
        </mxCell>
        <mxCell id="_ushDdjgcCsxqVEZmOoj-22" value="内置展示" style="rounded=1;whiteSpace=wrap;html=1;fontSize=12;" vertex="1" parent="1">
          <mxGeometry x="424.5" y="1190.5" width="74" height="40" as="geometry" />
        </mxCell>
        <mxCell id="_ushDdjgcCsxqVEZmOoj-24" value="grafana" style="rounded=1;whiteSpace=wrap;html=1;fontSize=12;" vertex="1" parent="1">
          <mxGeometry x="564.5" y="1190.5" width="74" height="40" as="geometry" />
        </mxCell>
        <mxCell id="_ushDdjgcCsxqVEZmOoj-25" value="mc" style="strokeWidth=2;html=1;shape=mxgraph.flowchart.document2;whiteSpace=wrap;size=0.25;fontSize=12;" vertex="1" parent="1">
          <mxGeometry x="27" y="1890" width="93" height="60" as="geometry" />
        </mxCell>
        <mxCell id="_ushDdjgcCsxqVEZmOoj-26" value="mp" style="strokeWidth=2;html=1;shape=mxgraph.flowchart.document2;whiteSpace=wrap;size=0.25;fontSize=12;" vertex="1" parent="1">
          <mxGeometry x="27" y="1980" width="100" height="60" as="geometry" />
        </mxCell>
        <mxCell id="_ushDdjgcCsxqVEZmOoj-27" value="...." style="strokeWidth=2;html=1;shape=mxgraph.flowchart.document2;whiteSpace=wrap;size=0.25;fontSize=12;" vertex="1" parent="1">
          <mxGeometry x="27" y="2070" width="100" height="60" as="geometry" />
        </mxCell>
        <mxCell id="_ushDdjgcCsxqVEZmOoj-28" value="filebeat&lt;br&gt;&lt;br&gt;可过滤、排除、多行采集" style="rounded=1;whiteSpace=wrap;html=1;fontSize=12;" vertex="1" parent="1">
          <mxGeometry x="197" y="1980" width="120" height="60" as="geometry" />
        </mxCell>
        <mxCell id="_ushDdjgcCsxqVEZmOoj-32" value="" style="endArrow=classic;html=1;rounded=0;fontSize=12;entryX=0;entryY=0;entryDx=0;entryDy=0;exitX=1;exitY=0.5;exitDx=0;exitDy=0;exitPerimeter=0;" edge="1" parent="1">
          <mxGeometry width="50" height="50" relative="1" as="geometry">
            <mxPoint x="120" y="1920" as="sourcePoint" />
            <mxPoint x="197" y="1980" as="targetPoint" />
          </mxGeometry>
        </mxCell>
        <mxCell id="_ushDdjgcCsxqVEZmOoj-33" value="" style="endArrow=classic;html=1;rounded=0;fontSize=12;entryX=0;entryY=0.5;entryDx=0;entryDy=0;exitX=1;exitY=0.5;exitDx=0;exitDy=0;exitPerimeter=0;" edge="1" parent="1" source="_ushDdjgcCsxqVEZmOoj-26" target="_ushDdjgcCsxqVEZmOoj-28">
          <mxGeometry width="50" height="50" relative="1" as="geometry">
            <mxPoint x="127" y="2000" as="sourcePoint" />
            <mxPoint x="204" y="2060" as="targetPoint" />
          </mxGeometry>
        </mxCell>
        <mxCell id="_ushDdjgcCsxqVEZmOoj-34" value="" style="endArrow=classic;html=1;rounded=0;fontSize=12;entryX=0.025;entryY=0.833;entryDx=0;entryDy=0;exitX=1;exitY=0.5;exitDx=0;exitDy=0;exitPerimeter=0;entryPerimeter=0;" edge="1" parent="1" source="_ushDdjgcCsxqVEZmOoj-27" target="_ushDdjgcCsxqVEZmOoj-28">
          <mxGeometry width="50" height="50" relative="1" as="geometry">
            <mxPoint x="140" y="1940" as="sourcePoint" />
            <mxPoint x="217" y="2000" as="targetPoint" />
          </mxGeometry>
        </mxCell>
        <mxCell id="_ushDdjgcCsxqVEZmOoj-35" value="缓存到kafka" style="html=1;shadow=0;dashed=0;align=center;verticalAlign=middle;shape=mxgraph.arrows2.arrow;dy=0.6;dx=40;notch=0;fontSize=12;" vertex="1" parent="1">
          <mxGeometry x="317" y="1982.5" width="103" height="57.5" as="geometry" />
        </mxCell>
        <mxCell id="_ushDdjgcCsxqVEZmOoj-37" value="kafka集群" style="shape=ext;double=1;rounded=1;whiteSpace=wrap;html=1;fontSize=12;" vertex="1" parent="1">
          <mxGeometry x="420.75" y="1970" width="120" height="80" as="geometry" />
        </mxCell>
        <mxCell id="_ushDdjgcCsxqVEZmOoj-38" value="fluentd消费" style="html=1;shadow=0;dashed=0;align=center;verticalAlign=middle;shape=mxgraph.arrows2.arrow;dy=0.6;dx=40;notch=0;fontSize=12;" vertex="1" parent="1">
          <mxGeometry x="540.5" y="1982.5" width="103" height="57.5" as="geometry" />
        </mxCell>
        <mxCell id="_ushDdjgcCsxqVEZmOoj-44" value="存储到es" style="edgeStyle=orthogonalEdgeStyle;shape=flexArrow;rounded=0;orthogonalLoop=1;jettySize=auto;html=1;fontSize=12;" edge="1" parent="1" source="_ushDdjgcCsxqVEZmOoj-39" target="_ushDdjgcCsxqVEZmOoj-43">
          <mxGeometry relative="1" as="geometry" />
        </mxCell>
        <mxCell id="_ushDdjgcCsxqVEZmOoj-39" value="fluentd集群&lt;br&gt;&lt;br&gt;有自定义插件来&lt;br&gt;过滤业务数据" style="shape=ext;double=1;rounded=1;whiteSpace=wrap;html=1;fontSize=12;fillColor=#d5e8d4;strokeColor=#82b366;" vertex="1" parent="1">
          <mxGeometry x="643.5" y="1971.25" width="120" height="80" as="geometry" />
        </mxCell>
        <mxCell id="_ushDdjgcCsxqVEZmOoj-46" value="数据展示" style="edgeStyle=orthogonalEdgeStyle;shape=flexArrow;rounded=0;orthogonalLoop=1;jettySize=auto;html=1;fontSize=12;" edge="1" parent="1" source="_ushDdjgcCsxqVEZmOoj-43" target="_ushDdjgcCsxqVEZmOoj-45">
          <mxGeometry relative="1" as="geometry" />
        </mxCell>
        <mxCell id="_ushDdjgcCsxqVEZmOoj-43" value="es集群" style="whiteSpace=wrap;html=1;rounded=1;" vertex="1" parent="1">
          <mxGeometry x="643.5" y="2130" width="120" height="60" as="geometry" />
        </mxCell>
        <mxCell id="_ushDdjgcCsxqVEZmOoj-45" value="grafana" style="whiteSpace=wrap;html=1;rounded=1;" vertex="1" parent="1">
          <mxGeometry x="443.5" y="2130" width="120" height="60" as="geometry" />
        </mxCell>
      </root>
    </mxGraphModel>
  </diagram>
</mxfile>
